<svg width="44" height="21" viewBox="0 0 44 21" fill="none" xmlns="http://www.w3.org/2000/svg">
<path d="M0 13.3733C0 11.8903 0.291973 10.575 0.875919 9.42749C1.47756 8.27995 2.29155 7.39723 3.31788 6.77932C4.3442 6.16141 5.48555 5.85246 6.74192 5.85246C7.69747 5.85246 8.60878 6.06431 9.47585 6.48802C10.3429 6.89407 11.033 7.44136 11.5462 8.12989V1.1652H15.3153V20.7617H11.5462V18.5902C11.0861 19.314 10.4402 19.8966 9.60857 20.338C8.77689 20.7793 7.81249 21 6.71538 21C5.47671 21 4.3442 20.6822 3.31788 20.0467C2.29155 19.4111 1.47756 18.5195 0.875919 17.372C0.291973 16.2068 0 14.8739 0 13.3733ZM11.5727 13.4262C11.5727 12.5259 11.3958 11.7579 11.0419 11.1223C10.688 10.4691 10.2102 9.97478 9.60857 9.63935C9.00693 9.28626 8.36105 9.10971 7.67093 9.10971C6.98081 9.10971 6.34378 9.27743 5.75983 9.61286C5.17589 9.9483 4.69811 10.4426 4.32651 11.0958C3.9726 11.7314 3.79565 12.4905 3.79565 13.3733C3.79565 14.256 3.9726 15.0328 4.32651 15.7037C4.69811 16.3569 5.17589 16.86 5.75983 17.2131C6.36147 17.5662 6.99851 17.7427 7.67093 17.7427C8.36105 17.7427 9.00693 17.575 9.60857 17.2396C10.2102 16.8865 10.688 16.3922 11.0419 15.7566C11.3958 15.1034 11.5727 14.3266 11.5727 13.4262Z" fill="black"/>
<path d="M19.7675 4.343C19.1128 4.343 18.5642 4.13998 18.1218 3.73392C17.6971 3.31021 17.4848 2.78941 17.4848 2.1715C17.4848 1.55359 17.6971 1.04161 18.1218 0.635561C18.5642 0.211854 19.1128 0 19.7675 0C20.4222 0 20.9619 0.211854 21.3866 0.635561C21.829 1.04161 22.0502 1.55359 22.0502 2.1715C22.0502 2.78941 21.829 3.31021 21.3866 3.73392C20.9619 4.13998 20.4222 4.343 19.7675 4.343ZM21.599 6.0908V20.7617H17.8829V6.0908H21.599Z" fill="black"/>
<path d="M30.871 17.3455L34.587 6.0908H38.5419L33.1006 20.7617H28.5883L23.1735 6.0908H27.1549L30.871 17.3455Z" fill="black"/>
<path d="M41.7438 20.947C41.0714 20.947 40.514 20.744 40.0716 20.338C39.6469 19.9142 39.4346 19.3934 39.4346 18.7755C39.4346 18.1576 39.6469 17.6456 40.0716 17.2396C40.514 16.8159 41.0714 16.604 41.7438 16.604C42.3986 16.604 42.9383 16.8159 43.363 17.2396C43.7877 17.6456 44 18.1576 44 18.7755C44 19.3934 43.7877 19.9142 43.363 20.338C42.9383 20.744 42.3986 20.947 41.7438 20.947Z" fill="#3300FF"/>
</svg>
